<svg width="24" height="24" viewBox="0 0 24 24" fill="none" xmlns="http://www.w3.org/2000/svg">
<g clip-path="url(#clip0_2128_89183)">
<path d="M13.2495 9.50134V10.7508H12.0001V12.0002H10.7506V13.2496H9.50122V14.5013V15.7508H12.0001V14.5013H13.2495V13.2496H14.5012V12.0002H15.7506V9.50134H14.5012H13.2495Z" fill="#FFE85E"/>
<path d="M8.24942 9.50115V8.24942H9.50115V7H7V9.50115H8.24942Z" fill="#FFE85E"/>
<path d="M18.2495 7.00019H17.0001V5.75077H14.5012V4.50134H10.7506V5.75077H9.50122V7.00019H14.5012V8.24961H15.7506V9.50134H17.0001V14.5013H15.7506V15.7508H14.5012V17.0002H9.50122V15.7508H8.24949V14.5013H7.00007V9.50134H5.75064V10.7508H4.50122V14.5013H5.75064V17.0002H7.00007V18.2496H9.50122V19.5013H14.5012V18.2496H17.0001V17.0002H18.2495V14.5013H19.5012V9.50134H18.2495V7.00019Z" fill="#FFE85E"/>
<path d="M9.50115 5.75067H7V7.00009H9.50115V5.75067Z" fill="white"/>
<path d="M10.7506 4.50134H9.50122V5.75077H10.7506V4.50134Z" fill="white"/>
<path d="M14.5012 12V13.2494H13.2494V14.5012H12V15.7506H14.5012V14.5012H15.7506V12H14.5012Z" fill="white"/>
<path d="M7.00016 7H5.75073V9.50115H7.00016V7Z" fill="white"/>
<path d="M5.75064 9.50134H4.50122V10.7508H5.75064V9.50134Z" fill="white"/>
<path d="M17.0024 3.24933H14.5012V4.49875H17.0024V3.24933Z" fill="#9F5C09"/>
<path d="M9.50115 3.24933H7V4.49875H9.50115V3.24933Z" fill="#9F5C09"/>
<path d="M18.2494 4.50134H17V5.75077H18.2494V4.50134Z" fill="#9F5C09"/>
<path d="M5.75064 5.75067H4.50122V7.00009H5.75064V5.75067Z" fill="#9F5C09"/>
<path d="M19.4987 5.75067H18.2493V7.00009H19.4987V5.75067Z" fill="#9F5C09"/>
<path d="M18.2494 18.2493H17V19.4988H18.2494V18.2493Z" fill="#9F5C09"/>
<path d="M19.4987 17H18.2493V18.2494H19.4987V17Z" fill="#9F5C09"/>
<path d="M17.0024 19.5013H14.5012V20.7508H17.0024V19.5013Z" fill="#9F5C09"/>
<path d="M5.75064 17H4.50122V18.2494H5.75064V17Z" fill="#9F5C09"/>
<path d="M4.49869 7H3.24927V9.50115H4.49869V7Z" fill="#9F5C09"/>
<path d="M4.49869 14.5013H3.24927V17.0025H4.49869V14.5013Z" fill="#9F5C09"/>
<path d="M9.50115 19.5013H7V20.7508H9.50115V19.5013Z" fill="#9F5C09"/>
<path d="M7.00016 18.2493H5.75073V19.4988H7.00016V18.2493Z" fill="#9F5C09"/>
<path d="M14.5012 2H9.50122V3.24942H14.5012V2Z" fill="#9F5C09"/>
<path d="M20.7506 7H19.5012V9.50115H20.7506V7Z" fill="#9F5C09"/>
<path d="M20.7506 14.5013H19.5012V17.0025H20.7506V14.5013Z" fill="#9F5C09"/>
<path d="M3.24942 9.50134H2V14.5013H3.24942V9.50134Z" fill="#9F5C09"/>
<path d="M14.5012 20.7507H9.50122V22.0001H14.5012V20.7507Z" fill="#9F5C09"/>
<path d="M22.0002 9.50134H20.7507V14.5013H22.0002V9.50134Z" fill="#9F5C09"/>
<path d="M7.00016 4.50134H5.75073V5.75077H7.00016V4.50134Z" fill="#9F5C09"/>
<path d="M10.7506 4.50106H14.5012V3.24933H9.50122V4.50106H10.7506Z" fill="#FFB132"/>
<path d="M9.50115 4.50134H7V5.75077H9.50115V4.50134Z" fill="#FFB132"/>
<path d="M7.00016 5.75067H5.75073V7.00009H7.00016V5.75067Z" fill="#FFB132"/>
<path d="M5.75064 7H4.50122V9.50115H5.75064V7Z" fill="#FFB132"/>
<path d="M4.501 10.7508V9.50134H3.24927V14.5013H4.501V10.7508Z" fill="#FFB132"/>
<path d="M9.50115 18.2493H7V19.4988H9.50115V18.2493Z" fill="#FFB132"/>
<path d="M14.5012 19.5013H9.50122V20.7508H14.5012V19.5013Z" fill="#FFB132"/>
<path d="M7.00016 17H5.75073V18.2494H7.00016V17Z" fill="#FFB132"/>
<path d="M5.75064 14.5013H4.50122V17.0025H5.75064V14.5013Z" fill="#FFB132"/>
<path d="M15.7507 14.5013H17.0002V9.50134H15.7507V12.0002V14.5013Z" fill="#FFB132"/>
<path d="M9.50122 15.7507V17.0001H14.5012V15.7507H12.0001H9.50122Z" fill="#FFB132"/>
<path d="M15.7506 14.5013H14.5012V15.7508H15.7506V14.5013Z" fill="#FFB132"/>
<path d="M9.501 9.50106H8.24927V14.5011H9.501V13.2493H10.7504V11.9999H11.9998V10.7505H13.2493V9.50106H14.501V8.24933H9.501V9.50106Z" fill="#FFB132"/>
<path d="M20.7506 9.50134H19.5012V14.5013H20.7506V9.50134Z" fill="#D97102"/>
<path d="M19.4987 7H18.2493V9.50115H19.4987V7Z" fill="#D97102"/>
<path d="M18.2494 5.75067H17V7.00009H18.2494V5.75067Z" fill="#D97102"/>
<path d="M17.0024 18.2493H14.5012V19.4988H17.0024V18.2493Z" fill="#D97102"/>
<path d="M17.0024 4.50134H14.5012V5.75077H17.0024V4.50134Z" fill="#D97102"/>
<path d="M9.49869 14.5013H8.24927V15.7508H9.49869V14.5013Z" fill="#D97102"/>
<path d="M8.24942 9.50134H7V14.5013H8.24942V9.50134Z" fill="#D97102"/>
<path d="M9.49869 8.24933H8.24927V9.49875H9.49869V8.24933Z" fill="#D97102"/>
<path d="M15.7506 8.24933H14.5012V9.49875H15.7506V8.24933Z" fill="#D97102"/>
<path d="M14.5012 7H9.50122V8.24942H14.5012V7Z" fill="#D97102"/>
<path d="M18.2494 17H17V18.2494H18.2494V17Z" fill="#D97102"/>
<path d="M19.4987 14.5013H18.2493V17.0025H19.4987V14.5013Z" fill="#D97102"/>
</g>
<defs>
<clipPath id="clip0_2128_89183">
<rect width="20" height="20" fill="white" transform="translate(2 2)"/>
</clipPath>
</defs>
</svg>
