<svg width="24" height="24" viewBox="0 0 24 24" fill="none" xmlns="http://www.w3.org/2000/svg">
<path d="M8.24903 7.60712V3.85858H6.99873V5.10888H5.75078V6.35917H4.50049V7.60712H8.24903Z" fill="white"/>
<path d="M14.5005 8.85766V7.60736H11.9999H8.24902V8.85766H11.9999H14.5005Z" fill="white"/>
<path d="M16.999 10.1079H18.2493V8.8576H14.5007V10.1079H16.999Z" fill="white"/>
<path d="M18.2491 15.1089H16.9988V16.3592H18.2491V15.1089Z" fill="#074A88"/>
<path d="M19.4996 13.8586H18.2493V15.1089H19.4996V13.8586Z" fill="#074A88"/>
<path d="M20.7498 12.6084H19.4995V13.8587H20.7498V12.6084Z" fill="#074A88"/>
<path d="M16.9988 16.3569H15.7485V17.6072H16.9988V16.3569Z" fill="#074A88"/>
<path d="M22.0001 7.60736H20.7498V10.108V12.6085H22.0001V7.60736Z" fill="#074A88"/>
<path d="M8.24907 16.3569H6.99878V17.6072H8.24907V16.3569Z" fill="#074A88"/>
<path d="M9.49932 17.6071H8.24902V18.8574H9.49932V17.6071Z" fill="#074A88"/>
<path d="M15.751 17.6071H14.5007V18.8574H15.751V17.6071Z" fill="#074A88"/>
<path d="M10.7496 18.8576H9.49927V20.1079H10.7496V18.8576Z" fill="#074A88"/>
<path d="M19.4996 5.10886H18.2493V6.35915H19.4996V5.10886Z" fill="#074A88"/>
<path d="M3.2503 7.60736H2V12.6062H3.2503V7.60736Z" fill="#074A88"/>
<path d="M20.7498 6.3591H19.4995V7.6094H20.7498V6.3591Z" fill="#074A88"/>
<path d="M13.2503 20.1079H10.7498V21.3582H13.2503V20.1079Z" fill="#074A88"/>
<path d="M4.50054 12.6084H3.25024V13.8587H4.50054V12.6084Z" fill="#074A88"/>
<path d="M5.75078 13.8586H4.50049V15.1089H5.75078V13.8586Z" fill="#074A88"/>
<path d="M7.00103 15.1089H5.75073V16.3592H7.00103V15.1089Z" fill="#074A88"/>
<path d="M4.50054 6.3591H3.25024V7.6094H4.50054V6.3591Z" fill="#074A88"/>
<path d="M18.2491 3.85858H16.9988V5.10888H18.2491V3.85858Z" fill="#074A88"/>
<path d="M12 3.85863H14.5006H15.7485H16.9988V2.60834H6.99878V3.85863H8.24907H12Z" fill="#074A88"/>
<path d="M5.75078 5.10886H4.50049V6.35915H5.75078V5.10886Z" fill="#074A88"/>
<path d="M7.00103 3.85858H5.75073V5.10888H7.00103V3.85858Z" fill="#074A88"/>
<path d="M14.5005 18.8576H13.2502V20.1079H14.5005V18.8576Z" fill="#074A88"/>
<path d="M5.75078 12.6084H4.50049V13.8587H5.75078V12.6084Z" fill="#2BF1FF"/>
<path d="M18.2493 7.60736H14.5007V8.85766H18.2493V10.108H19.4996V7.60736H18.2493Z" fill="#2BF1FF"/>
<path d="M14.5006 8.8576H12V10.1079H14.5006V8.8576Z" fill="#2BF1FF"/>
<path d="M10.7496 17.6071H9.49927V18.8574H10.7496V17.6071Z" fill="#2BF1FF"/>
<path d="M9.49932 16.3569H8.24902V17.6072H9.49932V16.3569Z" fill="#2BF1FF"/>
<path d="M7.00103 13.8586H5.75073V15.1089H7.00103V13.8586Z" fill="#2BF1FF"/>
<path d="M4.50054 10.108H5.75083V8.85766H8.24908V7.60736H4.50054H3.25024V12.6085H4.50054V10.108Z" fill="#2BF1FF"/>
<path d="M8.24907 15.1089H6.99878V16.3592H8.24907V15.1089Z" fill="#2BF1FF"/>
<path d="M19.4996 12.6084H18.2493V13.8587H19.4996V12.6084Z" fill="#0C5EA8"/>
<path d="M14.5005 17.6071H13.2502V18.8574H14.5005V17.6071Z" fill="#0C5EA8"/>
<path d="M18.2491 13.8586H16.9988V15.1089H18.2491V13.8586Z" fill="#0C5EA8"/>
<path d="M13.2503 18.8576H10.7498V20.1079H13.2503V18.8576Z" fill="#0C5EA8"/>
<path d="M15.751 16.3569H14.5007V17.6072H15.751V16.3569Z" fill="#0C5EA8"/>
<path d="M16.9988 15.1089H15.7485V16.3592H16.9988V15.1089Z" fill="#0C5EA8"/>
<path d="M19.4996 6.3591H18.2493V7.6094H19.4996V6.3591Z" fill="#0C5EA8"/>
<path d="M20.7498 10.1078H19.4995V12.6084H20.7498V10.1078Z" fill="#0C5EA8"/>
<path d="M16.9988 3.85858H15.7485V5.10888H16.9988V3.85858Z" fill="#0C5EA8"/>
<path d="M18.2491 5.10886H16.9988V6.35915H18.2491V5.10886Z" fill="#0C5EA8"/>
<path d="M8.24907 13.8586H6.99878V15.1089H8.24907V13.8586Z" fill="#63C6EB"/>
<path d="M11.9999 8.8576H8.24898H5.75073V10.1079H11.9999V8.8576Z" fill="#63C6EB"/>
<path d="M7.00103 12.6084H5.75073V13.8587H7.00103V12.6084Z" fill="#63C6EB"/>
<path d="M20.7498 7.60736H19.4995V10.108H20.7498V7.60736Z" fill="#63C6EB"/>
<path d="M16.9988 12.6084V10.1078H14.5006H12V17.6073H13.2503V16.357H14.5006V15.109H15.7485V12.6084H16.9988Z" fill="#63C6EB"/>
<path d="M9.49932 15.1089H8.24902V16.3592H9.49932V15.1089Z" fill="#63C6EB"/>
<path d="M10.7496 16.3569H9.49927V17.6072H10.7496V16.3569Z" fill="#63C6EB"/>
<path d="M14.5006 3.85858H12V7.60947H14.5006V3.85858Z" fill="#63C6EB"/>
<path d="M5.75078 10.1078H4.50049V12.6084H5.75078V10.1078Z" fill="#63C6EB"/>
<path d="M16.9988 10.1078V12.6084H15.7485V15.109H16.9988V13.8587H18.2491V12.6084H19.4994V10.1078H18.2491H16.9988Z" fill="#009AD3"/>
<path d="M15.751 15.1089H14.5007V16.3592H15.751V15.1089Z" fill="#009AD3"/>
<path d="M14.5005 16.3569H13.2502V17.6072H14.5005V16.3569Z" fill="#009AD3"/>
<path d="M11.9999 10.1078H5.75073V12.6084H6.99868V13.8587H8.24898V15.109H9.49927V16.357H10.7496V17.6073V18.8576H13.2502V17.6073H11.9999V10.1078Z" fill="#009AD3"/>
<path d="M18.2493 7.60712V6.35917H16.999V5.10888H15.7487V3.85858H14.5007V7.60712H18.2493Z" fill="#009AD3"/>
<path d="M11.9999 3.85858H8.24902V7.60947H11.9999V3.85858Z" fill="#009AD3"/>
</svg>
