<svg width="136" height="136" viewBox="0 0 136 136" fill="none" xmlns="http://www.w3.org/2000/svg">
<path d="M24.5399 67.5H16.27V75.7699H24.5399V67.5Z" fill="#DAE2EA"/>
<path d="M16.2699 75.7699H8V84.0398H16.2699V75.7699Z" fill="#DAE2EA"/>
<path d="M32.7699 75.7699H24.5V84.0398H32.7699V75.7699Z" fill="#DAE2EA"/>
<path d="M16.2699 59.2699H8V67.5398H16.2699V59.2699Z" fill="#DAE2EA"/>
<path d="M32.7699 59.2699H24.5V67.5398H32.7699V59.2699Z" fill="#DAE2EA"/>
<path d="M105 34.5V26.2699H96.7699V18H88.5H80.2699H72H63.7699H55.5H47.2699V26.2699H39V34.5H47.2699H55.5H63.7699H72H80.2699H88.5H96.7699H105Z" fill="#B2C4F3"/>
<path d="M39 34.5V42.7699H47.2699H55.5V34.5H47.2699H39Z" fill="#A5CDF5"/>
<path d="M88.5 67.5H96.7699V59.2699H105V51V42.7699V34.5H96.7699H88.5V42.7699V51H80.2699V59.2699H72V67.5H80.2699H88.5Z" fill="#A5CDF5"/>
<path d="M63.77 92.2699H72.0001V84H80.27V75.7699H88.5001V67.5H80.27H72.0001H63.77V75.7699H55.5001V84H63.77H55.5001H47.27V92.2699H55.5001H63.77Z" fill="#DAE2EA"/>
<path d="M47.2699 100.5H39V108.77V117H47.2699H55.5H63.7699H72H80.2699H88.5H96.7699H105V108.77H96.7699H105V100.5H96.7699H88.5H80.2699H72H63.7699H55.5H47.2699Z" fill="#B2C4F3"/>
<path d="M55.5 92.2699H47.2699H39V100.5H47.2699H55.5H63.7699V92.2699H55.5Z" fill="#A5CDF5"/>
</svg>
