<svg width="136" height="136" viewBox="0 0 136 136" fill="none" xmlns="http://www.w3.org/2000/svg">
<path d="M44.2007 36.9V22.7H39.5007V36.9H44.2007Z" fill="#D95B00"/>
<path d="M39.4807 51.1604V36.9604H34.7807V51.1604H39.4807Z" fill="#D95B00"/>
<path d="M82.1318 41.6893V32.1893H77.4318V41.6893H82.1318Z" fill="#D95B00"/>
<path d="M86.8916 32.269V22.769H82.1916V32.269H86.8916Z" fill="#D95B00"/>
<path d="M77.3718 51.2096V41.7096H72.6718V51.2096H77.3718Z" fill="#D95B00"/>
<path d="M101.143 74.8796V70.1796H96.4428V74.8796H101.143Z" fill="#D95B00"/>
<path d="M53.7224 112.761V98.5615H49.0224V112.761H53.7224Z" fill="#D95B00"/>
<path d="M105.873 70.1294V60.6294H101.173V70.1294H105.873Z" fill="#D95B00"/>
<path d="M72.6418 55.8598V51.1598H67.9418V55.8598H72.6418Z" fill="#D95B00"/>
<path d="M96.343 79.5598V74.8598H91.643V79.5598H96.343Z" fill="#D95B00"/>
<path d="M91.6428 84.3401V79.6401H86.9428V84.3401H91.6428Z" fill="#D95B00"/>
<path d="M86.843 89.0203V84.3203H82.143V89.0203H86.843Z" fill="#D95B00"/>
<path d="M82.1428 93.8005V89.1005H77.4428V93.8005H82.1428Z" fill="#D95B00"/>
<path d="M77.4429 98.5807V93.8807H72.7429V98.5807H77.4429Z" fill="#D95B00"/>
<path d="M63.1428 112.721V108.021H58.4428V112.721H63.1428Z" fill="#D95B00"/>
<path d="M58.4429 117.502V112.802H53.7429V117.502H58.4429Z" fill="#D95B00"/>
<path d="M72.6428 103.261V98.5609H67.9428V103.261H72.6428Z" fill="#D95B00"/>
<path d="M67.9429 108.041V103.341H63.2429V108.041H67.9429Z" fill="#D95B00"/>
<path d="M63.1621 84.3405V70.1405H58.4621V84.3405H63.1621Z" fill="#D95B00"/>
<path d="M58.4424 98.6011V84.4011H53.7424V98.6011H58.4424Z" fill="#D95B00"/>
<path d="M34.761 65.4208V51.2208H30.061L30.061 65.4208H34.761Z" fill="#D95B00"/>
<path d="M63.1002 65.4H34.7002V70.1H63.1002V65.4Z" fill="#D95B00"/>
<path d="M82.1002 18H44.2002V22.7H82.1002V18Z" fill="#D95B00"/>
<path d="M72.6627 60.6817H101.063V55.9817H72.6627V60.6817Z" fill="#D95B00"/>
<path d="M44.22 22.6609V65.3609H48.92V22.6609H44.22Z" fill="#FFD91D"/>
<path d="M39.4697 37.0309V65.4309H44.1697V37.0309H39.4697Z" fill="#FFD91D"/>
<path d="M58.3992 84.3225V108.022H63.0992V84.3225H58.3992Z" fill="#FFD91D"/>
<path d="M34.7195 51.201V65.401H39.4195V51.201H34.7195Z" fill="#FFD91D"/>
<path d="M77.3901 60.6524V89.0524H82.0901V60.6524H77.3901Z" fill="#FFD91D"/>
<path d="M86.8001 60.7H82.1001V84.4H86.8001V60.7Z" fill="#FFD91D"/>
<path d="M91.6001 60.7H86.9001V79.7H91.6001V60.7Z" fill="#FFD91D"/>
<path d="M96.3001 60.7H91.6001V74.9H96.3001V60.7Z" fill="#FFD91D"/>
<path d="M58.4002 98.6H53.7002V112.8H58.4002V98.6Z" fill="#FFD91D"/>
<path d="M101.1 60.7H96.4001V70.2H101.1V60.7Z" fill="#FFD91D"/>
<path d="M82.1001 22.7H77.4001V32.2H82.1001V22.7Z" fill="#FFD91D"/>
<path d="M48.96 22.701V65.401H53.66V22.701H48.96Z" fill="#FFD91D"/>
<path d="M53.7002 22.7411V65.4411H58.4002V22.7411H53.7002Z" fill="#FFD91D"/>
<path d="M58.4404 22.6813V65.3813H63.1404V22.6813H58.4404Z" fill="#FFD91D"/>
<path d="M63.22 22.6818L63.22 103.282H67.92V22.6818H63.22Z" fill="#FFD91D"/>
<path d="M67.9697 60.7123V98.6123H72.6697V60.7123H67.9697Z" fill="#FFD91D"/>
<path d="M72.6799 60.6823V93.8823H77.3799V60.6823H72.6799Z" fill="#FFD91D"/>
<path d="M67.9307 22.7514V51.1514H72.6307V22.7514H67.9307Z" fill="#FFD91D"/>
<path d="M72.7109 22.6514V41.6514H77.4109V22.6514H72.7109Z" fill="#FFD91D"/>
<path d="M53.7412 112.824H58.4412V103.324H53.7412V112.824Z" fill="#FFA72E"/>
<path d="M58.5214 108.044H63.2214V98.5438H58.5214V108.044Z" fill="#FFA72E"/>
<path d="M63.2016 103.364H67.9016V93.8636H63.2016V103.364Z" fill="#FFA72E"/>
<path d="M67.9819 98.5834H72.6819V89.0834H67.9819V98.5834Z" fill="#FFA72E"/>
<path d="M72.6621 93.8032H77.3621V84.3032H72.6621V93.8032Z" fill="#FFA72E"/>
<path d="M77.4423 89.123H82.1423V79.623H77.4423V89.123Z" fill="#FFA72E"/>
<path d="M82.2226 84.3427H86.9226V74.8427H82.2226V84.3427Z" fill="#FFA72E"/>
<path d="M86.9028 79.6625H91.6028V70.1625H86.9028V79.6625Z" fill="#FFA72E"/>
<path d="M91.6828 74.9223H96.3828V70.2223H91.6828V74.9223Z" fill="#FFA72E"/>
<path d="M96.363 70.102H101.063V60.602H96.363V70.102Z" fill="#FFA72E"/>
<path d="M34.8203 65.3817H39.5203V51.1817H34.8203V65.3817Z" fill="#FFA72E"/>
<path d="M63.2016 84.1869H67.9016V65.3869H63.2016V84.1869Z" fill="#FFA72E"/>
<path d="M39.4611 65.3619H63.1611V60.6619H39.4611V65.3619Z" fill="#FFA72E"/>
<path d="M72.6225 65.3619H96.3225V60.6619H72.6225V65.3619Z" fill="#FFA72E"/>
<path d="M67.9819 60.6817H72.6819V55.9817H67.9819V60.6817Z" fill="#FFA72E"/>
<path d="M63.2016 55.9015H67.9016V51.2015H63.2016V55.9015Z" fill="#FFA72E"/>
<path d="M72.6621 41.6609H77.3621V36.9609H72.6621V41.6609Z" fill="#FFA72E"/>
<path d="M67.9819 51.1812H72.6819V41.6812H67.9819V51.1812Z" fill="#FFA72E"/>
<path d="M58.5214 89.0631H63.2214V84.3631H58.5214V89.0631Z" fill="#FFA72E"/>
<path d="M39.5004 51.1411H44.2004V36.9411H39.5004V51.1411Z" fill="#FFA72E"/>
<path d="M39.5004 60.6817H44.2004V55.9817H39.5004V60.6817Z" fill="#FFA72E"/>
</svg>
