<svg width="136" height="136" viewBox="0 0 136 136" fill="none" xmlns="http://www.w3.org/2000/svg">
<path d="M45.1265 63.077V68.1735H55.428V63.077H45.1265Z" fill="#07042D"/>
<path d="M50.3218 37.3666V42.4631H86.3228V37.3666H50.3218Z" fill="#07042D"/>
<path d="M50.3003 27.0864V32.1829H86.3013V27.0864H50.3003Z" fill="#07042D"/>
<path d="M60.6238 11.6663V16.7628H76.0218V11.6663H60.6238Z" fill="#07042D"/>
<path d="M34.9004 73.3025V78.399H39.9969V73.3025H34.9004Z" fill="#07042D"/>
<path d="M29.717 78.5075V83.6041H34.8136V78.5075H29.717Z" fill="#07042D"/>
<path d="M39.9753 68.206V73.3026H45.0719V68.206H39.9753Z" fill="#07042D"/>
<path d="M45.2031 32.1609V37.2574H50.2997V32.1609H45.2031Z" fill="#07042D"/>
<path d="M86.3232 32.1835V37.28H91.4198V32.1835H86.3232Z" fill="#07042D"/>
<path d="M76.0425 57.9051V63.0016H81.139V57.9051H76.0425Z" fill="#07042D"/>
<path d="M50.335 119.508V114.411H40.0335V119.508H50.335Z" fill="#07042D"/>
<path d="M96.5952 119.55V114.453H86.2937V119.55H96.5952Z" fill="#07042D"/>
<path d="M86.3042 124.615V119.518H50.3032V124.615H86.3042Z" fill="#07042D"/>
<path d="M86.3006 78.3973H34.9016V83.4939H86.3006V78.3973Z" fill="#FF99BA"/>
<path d="M101.68 83.4939V78.3973H86.2822V83.4939H101.68Z" fill="#FF2968"/>
<path d="M106.904 83.6023H86.3005V88.6988H106.904V83.6023Z" fill="#C40851"/>
<path d="M106.831 93.8064V88.7099H86.2281V93.8064H106.831Z" fill="#C40851"/>
<path d="M34.7933 83.6023H29.6968V99.0003H34.7933V83.6023Z" fill="#C40851"/>
<path d="M39.9981 83.6023H34.9016V93.9038H39.9981V83.6023Z" fill="#FF2968"/>
<path d="M86.1922 83.6023H81.0957V99.0003H86.1922V83.6023Z" fill="#FF2968"/>
<path d="M45.0948 83.6023H39.9983V104.205H45.0948V83.6023Z" fill="#FF2968"/>
<path d="M81.0958 88.6988H75.9993V104.097H81.0958V88.6988Z" fill="#FF2968"/>
<path d="M50.2997 83.6023H45.2031V109.302H50.2997V83.6023Z" fill="#FF2968"/>
<path d="M55.3963 83.6023H50.2998V109.302H55.3963V83.6023Z" fill="#FF2968"/>
<path d="M60.4928 83.6023H55.3962V109.302H60.4928V83.6023Z" fill="#FF2968"/>
<path d="M65.6976 83.6023H60.6011V109.302H65.6976V83.6023Z" fill="#FF2968"/>
<path d="M70.7943 83.6023H65.6978V109.302H70.7943V83.6023Z" fill="#FF2968"/>
<path d="M75.9991 83.6023H70.9026V109.302H75.9991V83.6023Z" fill="#FF2968"/>
<path d="M39.9981 93.7954H34.9016V109.193H39.9981V93.7954Z" fill="#C40851"/>
<path d="M45.0948 104.097H39.9983V114.398H45.0948V104.097Z" fill="#C40851"/>
<path d="M106.904 93.7954H86.3005V98.8919H106.904V93.7954Z" fill="#C40851"/>
<path d="M101.67 104.13V99.0334H81.0667V104.13H101.67Z" fill="#C40851"/>
<path d="M101.746 109.238V104.141H76.0461V109.238H101.746Z" fill="#C40851"/>
<path d="M96.5945 114.367V109.27L45.1955 109.27V114.367L96.5945 114.367Z" fill="#C40851"/>
<path d="M86.2607 119.475V114.378H50.2597V119.475H86.2607Z" fill="#991054"/>
<path d="M76.0339 78.3656V73.269H45.2379V78.3656H76.0339Z" fill="#5FAA77"/>
<path d="M96.5291 78.365V73.2684H75.9261V78.365H96.5291Z" fill="#5FAA77"/>
<path d="M91.3672 73.2469V68.1503L50.2697 68.1503V73.2469H91.3672Z" fill="#5FAA77"/>
<path d="M70.8179 68.118V63.0214H55.4199V68.118H70.8179Z" fill="#5FAA77"/>
<path d="M81.2041 62.9993H70.9026V68.0959H81.2041V62.9993Z" fill="#195B4E"/>
<path d="M86.3008 68.0958H75.9993V73.1924H86.3008V68.0958Z" fill="#195B4E"/>
<path d="M91.3972 73.3008H81.0957V78.3974H91.3972V73.3008Z" fill="#195B4E"/>
<path d="M65.6976 42.3964H60.6011V62.9993H65.6976V42.3964Z" fill="#5FAA77"/>
<path d="M75.9991 42.3964H70.9026V62.9993H75.9991V42.3964Z" fill="#195B4E"/>
<path d="M70.7943 42.3964H65.6978V62.9993H70.7943V42.3964Z" fill="#E6E2AD"/>
<path d="M65.6976 62.9993H60.6011V68.0959H65.6976V62.9993Z" fill="#E6E2AD"/>
<path d="M76.0437 26.9544V21.8578L60.6457 21.8578V26.9544L76.0437 26.9544Z" fill="#C9704F"/>
<path d="M76.0437 21.8792V16.7827H70.9472V21.8792H76.0437Z" fill="#C9704F"/>
<path d="M86.3237 37.2343V32.1378L50.3227 32.1378V37.2343L86.3237 37.2343Z" fill="#195B4E"/>
<path d="M70.8276 21.8904V16.7938L60.5261 16.7938V21.8904H70.8276Z" fill="#EDA661"/>
<path d="M101.659 114.399V109.302H96.5626V114.399H101.659Z" fill="#07042D"/>
<path d="M24.5984 83.5391V98.9371H29.6949V83.5391H24.5984Z" fill="#07042D"/>
<path d="M29.7925 98.9267V109.228H34.889V98.9267H29.7925Z" fill="#07042D"/>
<path d="M34.9214 109.283V114.379H40.0179V109.283H34.9214Z" fill="#07042D"/>
<path d="M101.752 98.9932V109.295H106.849V98.9932H101.752Z" fill="#07042D"/>
<path d="M55.4937 42.4305V63.0335H60.5902V42.4305H55.4937Z" fill="#07042D"/>
<path d="M76.0212 42.4202V57.8182H81.1178V42.4202H76.0212Z" fill="#07042D"/>
<path d="M55.4292 16.687V26.9885H60.5257V16.687H55.4292Z" fill="#07042D"/>
<path d="M75.9893 16.7525V27.054H81.0858V16.7525H75.9893Z" fill="#07042D"/>
<path d="M81.1067 63.0562V68.1527H91.4082V63.0562H81.1067Z" fill="#07042D"/>
<path d="M96.5806 73.2823V78.3788H101.677V73.2823H96.5806Z" fill="#07042D"/>
<path d="M101.677 78.4658V83.5624H106.774V78.4658H101.677Z" fill="#07042D"/>
<path d="M91.3757 68.2072V73.3038H96.4723V68.2072H91.3757Z" fill="#07042D"/>
<path d="M106.839 83.5843V98.9823H111.935V83.5843H106.839Z" fill="#07042D"/>
<path d="M50.2997 83.6023H45.2031V99.0003H50.2997V83.6023Z" fill="#FFFFEB"/>
<path d="M55.3963 99.0003H50.2998V104.097H55.3963V99.0003Z" fill="#FFFFEB"/>
<path d="M81.0958 83.6023H75.9993V88.6988H81.0958V83.6023Z" fill="#FF99BA"/>
<path d="M70.7943 104.097H65.6978V109.193H70.7943V104.097Z" fill="#FF99BA"/>
<path d="M96.4937 99.0003H91.3972V104.097H96.4937V99.0003Z" fill="#FF2968"/>
<path d="M101.699 88.6988H96.6021V93.7953H101.699V88.6988Z" fill="#FF2968"/>
<path d="M60.4928 88.6988H55.3962V93.7953H60.4928V88.6988Z" fill="#FF99BA"/>
<path d="M39.9981 88.6988H34.9016V93.7953H39.9981V88.6988Z" fill="#FF99BA"/>
<path d="M50.2997 78.3973H45.2031V83.4939H50.2997V78.3973Z" fill="#FFFFEB"/>
<path d="M55.3963 73.3008H50.2998V78.3974H55.3963V73.3008Z" fill="#FFFFEB"/>
<path d="M45.0948 73.3008H39.9983V78.3974H45.0948V73.3008Z" fill="#195B4E"/>
<path d="M50.2997 68.0958H45.2031V73.1924H50.2997V68.0958Z" fill="#195B4E"/>
</svg>
